<?xml version="1.0" encoding="utf-8"?><svg xml:space="preserve" viewBox="0 0 100 100" y="0" x="0" xmlns="http://www.w3.org/2000/svg" id="圖層_1" version="1.1" width="200px" height="200px" xmlns:xlink="http://www.w3.org/1999/xlink" style="width:100%;height:100%;background-size:initial;background-repeat:initial;background-position-y:initial;background-position-x:initial;background-origin:initial;background-color:initial;background-clip:initial;background-attachment:initial;animation-play-state:paused" ><g class="ldl-scale" style="transform-origin:50% 50%;transform:rotate(0deg) scale(0.8, 0.8);animation-play-state:paused" ><ellipse stroke="#333" fill="#e0e0e0" stroke-miterlimit="10" stroke-width="3.5" ry="6.5" rx="24.5" cy="83.5" cx="50" style="stroke:rgb(51, 51, 51);fill:rgb(224, 224, 224);animation-play-state:paused" ></ellipse>
<path stroke-miterlimit="10" stroke-width="3.5" stroke="#000" opacity=".2" d="M58.5 77.4c1 2.2 1.3 4.5.9 6.7-.5 2.2-1.7 4.2-3.5 5.8 10.7-.7 18.6-3.3 18.6-6.3 0-2.9-6.6-5.3-16-6.2z" style="animation-play-state:paused" ></path>
<path stroke="#333" fill="#abbd81" stroke-miterlimit="10" stroke-width="3.5" d="M78.5 38.5c0-16.4-13.9-29.6-30.6-28.5-14 1-25.4 12.3-26.4 26.4-1 13.8 7.8 25.6 20.1 29.4 1.8.6 3.3 2 3.9 3.8l4.1 12.6c.1.3.6.3.7 0l4.1-12.6c.6-1.8 2-3.3 3.9-3.8C70 62.3 78.5 51.4 78.5 38.5zM50 50.8c-6.8 0-12.2-5.5-12.2-12.2 0-6.8 5.5-12.2 12.2-12.2s12.2 5.5 12.2 12.2c0 6.7-5.4 12.2-12.2 12.2z" style="stroke:rgb(51, 51, 51);fill:rgb(111, 193, 81);animation-play-state:paused" ></path>
<path stroke-miterlimit="10" stroke-width="3.5" stroke="#000" stroke-linejoin="round" opacity=".2" d="M48 10.1c-1.3.1-2.6.3-3.9.5 13 2.7 22.7 14.2 22.7 27.9 0 12.9-8.5 23.7-20.2 27.3-.9.3-1.8.8-2.5 1.5.6.6 1.1 1.4 1.4 2.3l4.1 12.6c.1.3.6.3.7 0l4.1-12.6c.6-1.8 2-3.3 3.9-3.8C70 62.3 78.5 51.4 78.5 38.5c0-16.4-13.8-29.6-30.5-28.4z" style="animation-play-state:paused" ></path>
<path stroke-miterlimit="10" stroke-width="3.5" stroke="#fff" stroke-linecap="round" fill="none" d="M34.5 23.4c2.2-2.4 5-4.2 8.2-5.3" style="stroke:rgb(198, 208, 185);animation-play-state:paused" ></path>
<path stroke-miterlimit="10" stroke-width="3.5" stroke="#fff" stroke-linecap="round" fill="none" d="M30.1 30.6c.2-.5.4-1.1.6-1.6" style="stroke:rgb(198, 208, 185);animation-play-state:paused" ></path>
<metadata xmlns:d="https://loading.io/stock/" style="animation-play-state:paused" ><d:name style="animation-play-state:paused" >location</d:name>


<d:tags style="animation-play-state:paused" >location,place,locality,marker,landmark,waypoint,gps</d:tags>


<d:license style="animation-play-state:paused" >by</d:license>


<d:slug style="animation-play-state:paused" >f9l5pp</d:slug></metadata></g><!-- generated by https://loading.io/ --></svg>